<svg width="60" height="60" viewBox="0 0 60 60" fill="none" xmlns="http://www.w3.org/2000/svg">
<path d="M55.0011 30.2495C55.0011 35.1942 53.5348 40.0279 50.7876 44.1393C48.0405 48.2507 44.1359 51.4552 39.5675 53.3474C34.9992 55.2397 29.9723 55.7348 25.1226 54.7701C20.2728 53.8055 15.8181 51.4243 12.3216 47.9279C8.82515 44.4314 6.44403 39.9767 5.47936 35.1269C4.51469 30.2772 5.00979 25.2503 6.90207 20.682C8.79434 16.1136 11.9988 12.209 16.1102 9.46185C20.2216 6.7147 25.0553 5.24841 30 5.24841C33.2832 5.24841 36.5343 5.89508 39.5675 7.15151C42.6008 8.40793 45.3569 10.2495 47.6784 12.5711C50 14.8926 51.8416 17.6487 53.098 20.682C54.3544 23.7152 55.0011 26.9663 55.0011 30.2495ZM41.8484 15.7232C34.0471 12.8095 25.457 12.805 17.6527 15.7105C17.4923 15.7625 17.3441 15.8464 17.217 15.9571C17.0899 16.0678 16.9864 16.2031 16.9129 16.3548C16.8394 16.5065 16.7974 16.6715 16.7892 16.8399C16.7811 17.0083 16.8072 17.1766 16.8657 17.3347C16.9243 17.4927 17.0143 17.6373 17.1302 17.7598C17.246 17.8822 17.3855 17.9799 17.5401 18.0471C17.6947 18.1143 17.8614 18.1495 18.0299 18.1506C18.1985 18.1517 18.3656 18.1188 18.5211 18.0537C25.7628 15.3562 33.7342 15.3596 40.9737 18.0631C41.1292 18.13 41.2967 18.1646 41.466 18.1648C41.6353 18.165 41.8029 18.1308 41.9586 18.0643C42.1143 17.9978 42.2548 17.9004 42.3718 17.778C42.4887 17.6556 42.5796 17.5107 42.6388 17.3521C42.6981 17.1935 42.7246 17.0246 42.7166 16.8555C42.7087 16.6864 42.6665 16.5206 42.5926 16.3683C42.5187 16.216 42.4146 16.0803 42.2867 15.9694C42.1588 15.8585 42.0097 15.7747 41.8484 15.7232ZM40.4748 20.3968C40.4748 20.3968 39.7485 20.1126 38.9021 19.8442C33.0544 17.9882 26.7811 17.9508 20.9116 19.7368C19.9642 20.021 19.0295 20.3842 19.0295 20.3842C18.9074 20.4304 18.7959 20.5008 18.7016 20.5911C18.6072 20.6813 18.532 20.7896 18.4805 20.9096C18.4289 21.0295 18.402 21.1586 18.4014 21.2892C18.4008 21.4197 18.4264 21.549 18.4769 21.6695L29.3527 47.9653C29.5642 48.4705 29.9053 48.4705 30.1169 47.9653L41.0211 21.6821C41.0713 21.5618 41.0969 21.4327 41.0966 21.3023C41.0962 21.172 41.0698 21.043 41.0189 20.923C40.968 20.803 40.8937 20.6943 40.8002 20.6034C40.7068 20.5126 40.5961 20.4444 40.4748 20.3968ZM24.8684 27.3537C25.5093 27.3537 26.1357 27.1637 26.6685 26.8076C27.2013 26.4516 27.6166 25.9456 27.8618 25.3536C28.107 24.7615 28.1712 24.1101 28.0462 23.4816C27.9212 22.8531 27.6126 22.2758 27.1595 21.8227C26.7064 21.3695 26.129 21.0609 25.5005 20.9359C24.872 20.8109 24.2206 20.8751 23.6286 21.1203C23.0365 21.3655 22.5305 21.7808 22.1745 22.3136C21.8185 22.8464 21.6284 23.4729 21.6284 24.1137C21.6284 24.973 21.9698 25.7971 22.5774 26.4047C23.185 27.0123 24.0091 27.3537 24.8684 27.3537ZM29.7506 39.5179C30.3915 39.5179 31.018 39.3278 31.5509 38.9716C32.0838 38.6155 32.4991 38.1093 32.7442 37.5171C32.9894 36.9248 33.0533 36.2732 32.9281 35.6446C32.8028 35.016 32.4939 34.4387 32.0405 33.9857C31.587 33.5327 31.0094 33.2244 30.3807 33.0998C29.752 32.9751 29.1004 33.0397 28.5085 33.2854C27.9165 33.5311 27.4107 33.9469 27.0551 34.4801C26.6994 35.0134 26.5099 35.6401 26.5106 36.281C26.5114 37.1398 26.8531 37.9631 27.4606 38.57C28.0682 39.177 28.8918 39.5179 29.7506 39.5179ZM33.4137 30.8432C34.0545 30.8432 34.6809 30.6531 35.2138 30.2971C35.7466 29.9411 36.1619 29.4351 36.4071 28.843C36.6523 28.251 36.7165 27.5996 36.5915 26.9711C36.4664 26.3426 36.1579 25.7652 35.7047 25.3121C35.2516 24.859 34.6743 24.5504 34.0458 24.4254C33.4173 24.3004 32.7659 24.3646 32.1738 24.6098C31.5818 24.855 31.0758 25.2703 30.7197 25.8031C30.3637 26.3359 30.1737 26.9623 30.1737 27.6032C30.1733 28.0286 30.2567 28.45 30.4191 28.8433C30.5816 29.2365 30.8199 29.5939 31.1205 29.8951C31.421 30.1963 31.778 30.4353 32.1709 30.5985C32.5638 30.7617 32.9851 30.8459 33.4106 30.8463L33.4137 30.8432Z" fill="#FF9146"/>
</svg>
